<svg xmlns="http://www.w3.org/2000/svg" viewBox="0 0 20 20" fill="#D44C47"><path d="M4.063 3.75c0-.966.596-1.562 1.562-1.562s1.563.596 1.563 1.562-.597 1.563-1.563 1.563-1.562-.597-1.562-1.563M15 5.313c.966 0 1.563-.597 1.563-1.563S15.966 2.188 15 2.188s-1.562.596-1.562 1.562.596 1.563 1.562 1.563m3.438 8.437H16.25v3.75h-2.5v-3.75h-2.187l1.953-3.906-.55-1.103-1.253 2.509H.625V10h.587l.838-1.678C2.76 6.903 3.644 6.25 5.622 6.25s2.862.653 3.572 2.072L10.03 10h.55l.838-1.678c.71-1.419 1.593-2.072 3.572-2.072 1.978 0 2.862.653 3.572 2.072l1.115 2.228-1.397.7-1.253-2.51-.55 1.104 1.953 3.906zM4.063 10V8.438c-.238 0-.375.109-.494.346L2.959 10zm4.228 0-.61-1.216c-.119-.237-.256-.347-.494-.347V10z" fill="#D44C47"></path></svg>